# xmcd CD database file
#
# Track frame offsets:
#	150
#	17139
#	34928
#	52031
#	67928
#	87670
#	105059
#	119239
#	135719
#	154559
#	172110
#	189352
#	203664
#	223369
#	245706
#	270404
#
# Disc length: 3807 seconds
#
# Revision: 1
# Processed by: cddbd v1.5.2PL0 Copyright (c) Steve Scherf et al.
# Submitted via: CDex 1.70beta3
#
DISCID=ea0edd10
DTITLE=Vocaloid - VOCAROCK collection feat.初音ミク
DYEAR=2010
DGENRE=Vocaloid
TTITLE0=Palette - ゆよゆっぺ feat. 巡音ルカ
TTITLE1=フラッシュバックサウンド（VOCAROCK collection Ver.） - クワガタP feat. 初音ミク
TTITLE2=モノクロアクト - doriko feat. 初音ミク
TTITLE3=ワールズエンド・ダンスホール - wowaka(現実逃避P) feat. 初音ミク,巡音ルカ
TTITLE4=Child's Garden - otetsu feat. 巡音ルカ
TTITLE5=マリオネットシンドローム - すこっぷ feat. 初音ミク
TTITLE6=サルでもわかる - アゴアニキ feat. 鏡音リン
TTITLE7=ペテン師が笑う頃に - 梨本うい feat. 初音ミク
TTITLE8=タワー - KEI feat. 巡音ルカ
TTITLE9=カラクリアゲハ - 骨盤P feat. 初音ミク
TTITLE10=蕾桜 - ヤスオ feat. 初音ミク
TTITLE11=アルビノ - buzzG feat. 初音ミク
TTITLE12=夜と虹色 - 古川本舗 feat. 初音ミク
TTITLE13=falldown - ←P feat. 初音ミク
TTITLE14=Fake Lover - ジミーサムP feat. 初音ミク
TTITLE15=貴方に花を 私に唄を（VOCAROCK collection Ver.） - Re:nG feat. 初音ミク
EXTD=YEAR: 2010
EXTT0=
EXTT1=
EXTT2=
EXTT3=
EXTT4=
EXTT5=
EXTT6=
EXTT7=
EXTT8=
EXTT9=
EXTT10=
EXTT11=
EXTT12=
EXTT13=
EXTT14=
EXTT15=
PLAYORDER=
